<?xml version="1.0" encoding="utf-8"?>
<!-- Generator: Adobe Illustrator 27.0.0, SVG Export Plug-In . SVG Version: 6.00 Build 0)  -->
<svg version="1.1" id="Camada_1" xmlns="http://www.w3.org/2000/svg" xmlns:xlink="http://www.w3.org/1999/xlink" x="0px" y="0px"
	 viewBox="0 0 32 32" style="enable-background:new 0 0 32 32;" xml:space="preserve">
<style type="text/css">
	.st0{fill:#FFFFFF;}
</style>
<rect width="32" height="32"/>
<g>
	<path class="st0" d="M14,8.1c0,0,0.1,0.1,0.1,0.2v11.8c0,1.8-0.4,3-1.9,3.5c-0.5,0.2-1.2,0.3-2.1,0.3H8.3c-0.1,0-0.2-0.1-0.2-0.2
		v-1.3c0-0.1,0.1-0.2,0.2-0.2h1.8c1.4,0,2.1-0.6,2.1-2.1V8.3c0-0.1,0-0.1,0.1-0.2c0,0,0.1-0.1,0.1-0.1h1.5C13.9,8.1,14,8.1,14,8.1z"
		/>
	<path class="st0" d="M23.9,8.3v15.4c0,0.1-0.1,0.2-0.2,0.2h-1.5c-0.1,0-0.2-0.1-0.2-0.2V17c0-0.1-0.1-0.2-0.2-0.2h-6.7v-1.7h6.7
		c0.1,0,0.2-0.1,0.2-0.2V8.3c0-0.1,0.1-0.2,0.2-0.2h1.5C23.9,8.1,23.9,8.2,23.9,8.3z"/>
</g>
</svg>
