<?xml version="1.0" encoding="UTF-8"?>
<svg xmlns="http://www.w3.org/2000/svg" xmlns:xlink="http://www.w3.org/1999/xlink" width="35px" height="35px" viewBox="0 0 35 35" version="1.1">
<g id="surface1">
<path style=" stroke:none;fill-rule:nonzero;fill:rgb(100%,100%,100%);fill-opacity:1;" d="M 13.273438 0.949219 C 13.273438 0.949219 13.488281 1.164062 13.488281 1.375 L 13.488281 26.285156 C 13.488281 30.085938 12.640625 32.613281 9.472656 33.671875 C 8.421875 34.097656 6.9375 34.308594 5.042969 34.308594 L 1.242188 34.308594 C 1.03125 34.308594 0.820312 34.097656 0.820312 33.886719 L 0.820312 31.144531 C 0.820312 30.933594 1.03125 30.722656 1.242188 30.722656 L 5.046875 30.722656 C 8 30.722656 9.476562 29.457031 9.476562 26.289062 L 9.476562 1.375 C 9.476562 1.164062 9.476562 1.164062 9.6875 0.949219 L 9.898438 0.738281 L 13.0625 0.738281 C 13.070312 0.949219 13.273438 0.949219 13.273438 0.949219 Z M 13.273438 0.949219 "/>
<path style=" stroke:none;fill-rule:nonzero;fill:rgb(100%,100%,100%);fill-opacity:1;" d="M 34.179688 1.375 L 34.179688 33.886719 C 34.179688 34.097656 33.96875 34.308594 33.757812 34.308594 L 30.589844 34.308594 C 30.378906 34.308594 30.167969 34.097656 30.167969 33.886719 L 30.167969 19.734375 C 30.167969 19.523438 29.953125 19.3125 29.742188 19.3125 L 15.601562 19.3125 L 15.601562 15.722656 L 29.742188 15.722656 C 29.957031 15.722656 30.167969 15.511719 30.167969 15.296875 L 30.167969 1.375 C 30.167969 1.164062 30.378906 0.949219 30.589844 0.949219 L 33.757812 0.949219 C 34.179688 0.949219 34.179688 1.164062 34.179688 1.375 Z M 34.179688 1.375 "/>
</g>
</svg>
