<?xml version="1.0" encoding="utf-8"?>
<!-- Generator: Adobe Illustrator 27.0.0, SVG Export Plug-In . SVG Version: 6.00 Build 0)  -->
<svg version="1.1" id="Camada_1" xmlns="http://www.w3.org/2000/svg" xmlns:xlink="http://www.w3.org/1999/xlink" x="0px" y="0px"
	 viewBox="0 0 512 512" style="enable-background:new 0 0 512 512;" xml:space="preserve">
<style type="text/css">
	.st0{fill:#FFFFFF;}
</style>
<g>
	<path class="st0" d="M194.2,13.9c0,0,3.1,3.1,3.1,6.2v364.4c0,55.6-12.4,92.6-58.7,108.1c-15.4,6.2-37.1,9.3-64.8,9.3H18.2
		c-3.1,0-6.2-3.1-6.2-6.2v-40.1c0-3.1,3.1-6.2,6.2-6.2h55.6c43.2,0,64.8-18.5,64.8-64.8V20.1c0-3.1,0-3.1,3.1-6.2l3.1-3.1h46.3
		C191.2,13.9,194.2,13.9,194.2,13.9z"/>
	<path class="st0" d="M500,20.1v475.6c0,3.1-3.1,6.2-6.2,6.2h-46.3c-3.1,0-6.2-3.1-6.2-6.2V288.7c0-3.1-3.1-6.2-6.2-6.2H228.2v-52.5
		h206.9c3.1,0,6.2-3.1,6.2-6.2V20.1c0-3.1,3.1-6.2,6.2-6.2h46.3C500,13.9,500,17,500,20.1z"/>
</g>
</svg>
